<svg width="25" height="24" viewBox="0 0 25 24" fill="none" xmlns="http://www.w3.org/2000/svg">
    <g clip-path="url(#clip0_10_115)">
        <path fill-rule="evenodd" clip-rule="evenodd" d="M11.5938 14.805C13.6576 13.431 14.5785 10.8677 13.8607 8.49441C13.143 6.12114 10.956 4.49772 8.47656 4.49772C5.99714 4.49772 3.81013 6.12114 3.0924 8.49441C2.37466 10.8677 3.29549 13.431 5.35938 14.805C3.54109 15.4752 1.98822 16.7153 0.9325 18.3403C0.781494 18.5647 0.763047 18.8531 0.884222 19.095C1.0054 19.3368 1.24742 19.4947 1.51759 19.5081C1.78777 19.5215 2.04423 19.3884 2.18875 19.1597C3.57233 17.0317 5.93833 15.7479 8.47656 15.7479C11.0148 15.7479 13.3808 17.0317 14.7644 19.1597C14.9933 19.4999 15.4529 19.5932 15.7964 19.3692C16.1398 19.1452 16.2397 18.6869 16.0206 18.3403C14.9649 16.7153 13.412 15.4752 11.5938 14.805ZM4.35156 10.125C4.35156 7.84683 6.19839 6 8.47656 6C10.7547 6 12.6016 7.84683 12.6016 10.125C12.6016 12.4032 10.7547 14.25 8.47656 14.25C6.19946 14.2474 4.35415 12.4021 4.35156 10.125ZM24.0522 19.3781C23.7053 19.6043 23.2407 19.5066 23.0144 19.1597C21.6324 17.0303 19.2651 15.7466 16.7266 15.75C16.3123 15.75 15.9766 15.4142 15.9766 15C15.9766 14.5858 16.3123 14.25 16.7266 14.25C18.3879 14.2484 19.8861 13.2504 20.5277 11.718C21.1692 10.1855 20.8289 8.4178 19.6642 7.23312C18.4995 6.04844 16.7378 5.67805 15.1947 6.29344C14.9442 6.40171 14.6547 6.36541 14.4387 6.19864C14.2227 6.03188 14.1144 5.76096 14.1558 5.49125C14.1972 5.22154 14.3818 4.99558 14.6378 4.90125C17.3125 3.83457 20.3608 4.96001 21.7006 7.50883C23.0404 10.0576 22.239 13.2067 19.8438 14.805C21.662 15.4752 23.2149 16.7153 24.2706 18.3403C24.4968 18.6872 24.3991 19.1518 24.0522 19.3781Z" fill="#964F66"/>
    </g>
    <defs>
        <clipPath id="clip0_10_115">
            <rect width="24" height="24" fill="white" transform="translate(0.601562)"/>
        </clipPath>
    </defs>
</svg>
