<svg width="25" height="24" viewBox="0 0 25 24" fill="none" xmlns="http://www.w3.org/2000/svg">
    <g clip-path="url(#clip0_10_106)">
        <path fill-rule="evenodd" clip-rule="evenodd" d="M21.9291 20.4694L17.235 15.7762C20.0614 12.383 19.7189 7.36693 16.4576 4.38935C13.1963 1.41176 8.16978 1.526 5.04711 4.64867C1.92444 7.77134 1.8102 12.7978 4.78779 16.0591C7.76537 19.3204 12.7815 19.6629 16.1747 16.8366L20.8678 21.5306C21.1609 21.8237 21.636 21.8237 21.9291 21.5306C22.2221 21.2376 22.2221 20.7624 21.9291 20.4694ZM4.14844 10.5C4.14844 6.77208 7.17052 3.75 10.8984 3.75C14.6264 3.75 17.6484 6.77208 17.6484 10.5C17.6484 14.2279 14.6264 17.25 10.8984 17.25C7.17223 17.2459 4.15257 14.2262 4.14844 10.5Z" fill="#964F66"/>
    </g>
    <defs>
        <clipPath id="clip0_10_106">
            <rect width="24" height="24" fill="white" transform="translate(0.398438)"/>
        </clipPath>
    </defs>
</svg>
